<svg width="55" height="28" viewBox="0 0 55 28" fill="none" xmlns="http://www.w3.org/2000/svg">
<path d="M29.752 27V1.512H20.86L15.316 17.856H15.172L9.376 1.512H0.628V27H6.424L6.28 8.964H6.388L12.832 27H17.152L23.776 8.964H23.884L23.74 27H29.752ZM40.6268 27V21.636H30.7628V1.512H24.5708V27H40.6268ZM54.4182 23.472L50.1342 19.44C49.0542 20.952 47.1462 22.032 44.7342 22.032C40.4862 22.032 37.4982 18.864 37.4982 14.22C37.4982 9.72 40.5582 6.408 44.8422 6.408C46.7862 6.408 48.8382 7.164 49.9902 8.748L54.1662 4.572C52.0422 2.124 48.1902 0.827998 44.6262 0.827998C36.8502 0.827998 30.8022 6.048 30.8022 14.22C30.8022 22.212 36.6702 27.684 44.5182 27.684C48.8022 27.684 52.1862 26.064 54.4182 23.472Z" fill="#E8E8E8"/>
</svg>
